<svg xmlns="http://www.w3.org/2000/svg"
    xmlns:xlink="http://www.w3.org/1999/xlink" style="isolation:isolate" viewBox="716.473 450.487 26.054 26.025">
    <path d=" M 722.156 450.487 C 721.633 450.487 721.117 450.675 720.687 451.018 L 720.625 451.049 L 720.594 451.081 L 717.469 454.3 L 717.5 454.33 C 716.563 455.182 716.229 456.514 716.656 457.706 C 716.66 457.714 716.652 457.729 716.656 457.737 C 717.504 460.163 719.672 464.847 723.906 469.081 C 728.156 473.331 732.902 475.413 735.25 476.331 L 735.281 476.331 C 736.478 476.727 737.795 476.466 738.75 475.643 L 741.906 472.487 C 742.734 471.659 742.734 470.221 741.906 469.393 L 737.844 465.331 L 737.812 465.268 C 736.984 464.44 735.516 464.44 734.687 465.268 L 732.687 467.268 C 731.186 466.547 729.806 465.599 728.594 464.456 C 726.957 462.893 726.121 461.096 725.813 460.393 L 727.813 458.393 C 728.653 457.553 728.668 456.155 727.781 455.331 L 727.812 455.299 L 727.719 455.206 L 723.719 451.081 L 723.688 451.05 L 723.625 451.018 C 723.21 450.679 722.692 450.492 722.156 450.487 Z  M 722.156 452.487 C 722.238 452.492 722.315 452.525 722.375 452.581 L 726.375 456.674 L 726.469 456.768 C 726.461 456.76 726.527 456.866 726.406 456.987 L 723.906 459.487 L 723.437 459.925 L 723.657 460.549 C 723.657 460.549 724.805 463.624 727.219 465.925 L 727.438 466.112 C 729.761 468.233 732.5 469.393 732.5 469.393 L 733.125 469.675 L 736.094 466.705 C 736.266 466.534 736.234 466.534 736.406 466.705 L 740.5 470.801 C 740.672 470.972 740.672 470.91 740.5 471.081 L 737.437 474.144 C 736.977 474.539 736.488 474.621 735.907 474.426 C 733.641 473.535 729.238 471.601 725.312 467.676 C 721.355 463.718 719.289 459.23 718.532 457.051 C 718.379 456.644 718.488 456.043 718.844 455.738 L 718.906 455.675 L 721.938 452.582 C 721.997 452.526 722.074 452.493 722.155 452.487 L 722.156 452.487 Z " />
</svg>